<svg width="355" height="6" viewBox="0 0 355 6" fill="none" xmlns="http://www.w3.org/2000/svg">
<ellipse cx="70.9723" cy="3" rx="3" ry="3.04167" transform="rotate(-90 70.9723 3)" fill="black"/>
<ellipse cx="81.1111" cy="3" rx="3" ry="3.04167" transform="rotate(-90 81.1111 3)" fill="black"/>
<ellipse cx="91.25" cy="3" rx="3" ry="3.04167" transform="rotate(-90 91.25 3)" fill="black"/>
<ellipse cx="101.389" cy="3" rx="3" ry="3.04167" transform="rotate(-90 101.389 3)" fill="black"/>
<ellipse cx="111.528" cy="3" rx="3" ry="3.04167" transform="rotate(-90 111.528 3)" fill="black"/>
<path d="M118.625 3C118.625 4.65685 119.987 6 121.667 6L121.667 3.20516e-06C119.987 3.27845e-06 118.625 1.34315 118.625 3Z" fill="black"/>
<path d="M63.875 3C63.875 1.34315 62.5132 1.76834e-07 60.8333 3.94971e-07L60.8333 6C62.5132 6 63.875 4.65685 63.875 3Z" fill="black"/>
<ellipse cx="314.306" cy="3" rx="3" ry="3.04167" transform="rotate(-90 314.306 3)" fill="black"/>
<ellipse cx="324.445" cy="3" rx="3" ry="3.04167" transform="rotate(-90 324.445 3)" fill="black"/>
<ellipse cx="334.583" cy="3" rx="3" ry="3.04167" transform="rotate(-90 334.583 3)" fill="black"/>
<ellipse cx="344.722" cy="3" rx="3" ry="3.04167" transform="rotate(-90 344.722 3)" fill="black"/>
<ellipse cx="354.861" cy="3" rx="3" ry="3.04167" transform="rotate(-90 354.861 3)" fill="black"/>
<path d="M307.208 3C307.208 1.34315 305.847 1.76834e-07 304.167 3.94971e-07L304.167 6C305.847 6 307.208 4.65685 307.208 3Z" fill="black"/>
<ellipse cx="192.639" cy="3" rx="3" ry="3.04167" transform="rotate(-90 192.639 3)" fill="black"/>
<ellipse cx="202.778" cy="3" rx="3" ry="3.04167" transform="rotate(-90 202.778 3)" fill="black"/>
<ellipse cx="212.917" cy="3" rx="3" ry="3.04167" transform="rotate(-90 212.917 3)" fill="black"/>
<ellipse cx="223.056" cy="3" rx="3" ry="3.04167" transform="rotate(-90 223.056 3)" fill="black"/>
<ellipse cx="233.195" cy="3" rx="3" ry="3.04167" transform="rotate(-90 233.195 3)" fill="black"/>
<path d="M240.292 3C240.292 4.65685 241.654 6 243.333 6L243.333 3.20516e-06C241.654 3.27845e-06 240.292 1.34315 240.292 3Z" fill="black"/>
<path d="M185.542 3C185.542 1.34315 184.18 1.76834e-07 182.5 3.94971e-07L182.5 6C184.18 6 185.542 4.65685 185.542 3Z" fill="black"/>
<ellipse cx="10.1389" cy="3" rx="3" ry="3.04167" transform="rotate(-90 10.1389 3)" fill="black"/>
<ellipse cx="20.2778" cy="3" rx="3" ry="3.04167" transform="rotate(-90 20.2778 3)" fill="black"/>
<ellipse cx="30.4167" cy="3" rx="3" ry="3.04167" transform="rotate(-90 30.4167 3)" fill="black"/>
<ellipse cx="40.5556" cy="3" rx="3" ry="3.04167" transform="rotate(-90 40.5556 3)" fill="black"/>
<ellipse cx="50.6944" cy="3" rx="3" ry="3.04167" transform="rotate(-90 50.6944 3)" fill="black"/>
<path d="M57.7917 3C57.7917 4.65685 59.1535 6 60.8334 6L60.8334 3.20516e-06C59.1535 3.27845e-06 57.7917 1.34315 57.7917 3Z" fill="black"/>
<path d="M3.04167 3C3.04167 1.34315 1.67987 1.76834e-07 3.33786e-06 3.94971e-07L4.13245e-06 6C1.67987 6 3.04167 4.65685 3.04167 3Z" fill="black"/>
<ellipse cx="253.472" cy="3" rx="3" ry="3.04167" transform="rotate(-90 253.472 3)" fill="black"/>
<ellipse cx="263.611" cy="3" rx="3" ry="3.04167" transform="rotate(-90 263.611 3)" fill="black"/>
<ellipse cx="273.75" cy="3" rx="3" ry="3.04167" transform="rotate(-90 273.75 3)" fill="black"/>
<ellipse cx="283.889" cy="3" rx="3" ry="3.04167" transform="rotate(-90 283.889 3)" fill="black"/>
<ellipse cx="294.028" cy="3" rx="3" ry="3.04167" transform="rotate(-90 294.028 3)" fill="black"/>
<path d="M301.125 3C301.125 4.65685 302.487 6 304.167 6L304.167 3.20516e-06C302.487 3.27845e-06 301.125 1.34315 301.125 3Z" fill="black"/>
<path d="M246.375 3C246.375 1.34315 245.014 1.76834e-07 243.334 3.94971e-07L243.334 6C245.014 6 246.375 4.65685 246.375 3Z" fill="black"/>
<ellipse cx="131.806" cy="3" rx="3" ry="3.04167" transform="rotate(-90 131.806 3)" fill="black"/>
<ellipse cx="141.944" cy="3" rx="3" ry="3.04167" transform="rotate(-90 141.944 3)" fill="black"/>
<ellipse cx="152.083" cy="3" rx="3" ry="3.04167" transform="rotate(-90 152.083 3)" fill="black"/>
<ellipse cx="162.222" cy="3" rx="3" ry="3.04167" transform="rotate(-90 162.222 3)" fill="black"/>
<ellipse cx="172.361" cy="3" rx="3" ry="3.04167" transform="rotate(-90 172.361 3)" fill="black"/>
<path d="M179.458 3C179.458 4.65685 180.82 6 182.5 6L182.5 3.20516e-06C180.82 3.27845e-06 179.458 1.34315 179.458 3Z" fill="black"/>
<path d="M124.708 3C124.708 1.34315 123.347 1.76834e-07 121.667 3.94971e-07L121.667 6C123.347 6 124.708 4.65685 124.708 3Z" fill="black"/>
</svg>
